<svg width="32" height="32" viewBox="0 0 32 32" fill="none" xmlns="http://www.w3.org/2000/svg">
<path d="M24 4.33371H7.99997C7.32442 4.25541 6.63991 4.33088 5.99765 4.55446C5.35539 4.77805 4.772 5.14397 4.29112 5.62485C3.81023 6.10574 3.44431 6.68913 3.22072 7.33139C2.99714 7.97365 2.92167 8.65816 2.99997 9.33371V22.667C2.92167 23.3426 2.99714 24.0271 3.22072 24.6693C3.44431 25.3116 3.81023 25.895 4.29112 26.3759C4.772 26.8568 5.35539 27.2227 5.99765 27.4463C6.63991 27.6699 7.32442 27.7453 7.99997 27.667H24C24.6755 27.7453 25.36 27.6699 26.0023 27.4463C26.6445 27.2227 27.2279 26.8568 27.7088 26.3759C28.1897 25.895 28.5556 25.3116 28.7792 24.6693C29.0028 24.0271 29.0783 23.3426 29 22.667V9.33371C29.0783 8.65816 29.0028 7.97365 28.7792 7.33139C28.5556 6.68913 28.1897 6.10574 27.7088 5.62485C27.2279 5.14397 26.6445 4.77805 26.0023 4.55446C25.36 4.33088 24.6755 4.25541 24 4.33371ZM4.99997 14.3337H15V19.0004H4.99997V14.3337ZM17 14.3337H27V19.0004H17V14.3337ZM7.99997 6.33371H24C26.1026 6.33371 27 7.23104 27 9.33371V12.3337H4.99997V9.33371C4.99997 7.23104 5.8973 6.33371 7.99997 6.33371ZM4.99997 22.667V21.0004H15V25.667H7.99997C5.8973 25.667 4.99997 24.7697 4.99997 22.667ZM24 25.667H17V21.0004H27V22.667C27 24.7697 26.1026 25.667 24 25.667Z" fill="#25314C"/>
</svg>
