<svg width="16" height="16" viewBox="0 0 16 16" fill="none" xmlns="http://www.w3.org/2000/svg">
<path d="M8.00002 11.1669C7.93435 11.1671 7.8693 11.1542 7.80864 11.129C7.74799 11.1038 7.69294 11.0668 7.64669 11.0202L2.98002 6.35356C2.8917 6.25877 2.84362 6.13341 2.8459 6.00388C2.84819 5.87434 2.90066 5.75075 2.99227 5.65914C3.08388 5.56753 3.20747 5.51506 3.337 5.51277C3.46654 5.51049 3.5919 5.55857 3.68669 5.64689L8.00002 9.95956L12.3134 5.64689C12.4081 5.55857 12.5335 5.51049 12.663 5.51277C12.7926 5.51506 12.9162 5.56753 13.0078 5.65914C13.0994 5.75075 13.1518 5.87434 13.1541 6.00388C13.1564 6.13341 13.1083 6.25877 13.02 6.35356L8.35335 11.0202C8.3071 11.0668 8.25205 11.1038 8.1914 11.129C8.13074 11.1542 8.06569 11.1671 8.00002 11.1669Z" fill="#25314C"/>
</svg>
