<svg width="16" height="16" viewBox="0 0 16 16" fill="none" xmlns="http://www.w3.org/2000/svg">
<path d="M13.1667 10.0003V12.0003C13.2058 12.338 13.1681 12.6803 13.0563 13.0014C12.9445 13.3226 12.7615 13.6143 12.5211 13.8547C12.2806 14.0951 11.9889 14.2781 11.6678 14.3899C11.3467 14.5017 11.0044 14.5394 10.6667 14.5003H3.99998C3.66221 14.5394 3.31996 14.5017 2.99883 14.3899C2.67769 14.2781 2.386 14.0951 2.14556 13.8547C1.90512 13.6143 1.72216 13.3226 1.61036 13.0014C1.49857 12.6803 1.46083 12.338 1.49998 12.0003V5.3336C1.46083 4.99583 1.49857 4.65358 1.61036 4.33244C1.72216 4.01131 1.90512 3.71962 2.14556 3.47918C2.386 3.23874 2.67769 3.05577 2.99883 2.94398C3.31996 2.83219 3.66221 2.79445 3.99998 2.8336H5.99998C6.13259 2.8336 6.25977 2.88628 6.35354 2.98005C6.4473 3.07382 6.49998 3.20099 6.49998 3.3336C6.49998 3.46621 6.4473 3.59339 6.35354 3.68716C6.25977 3.78092 6.13259 3.8336 5.99998 3.8336H3.99998C2.94865 3.8336 2.49998 4.28227 2.49998 5.3336V12.0003C2.49998 13.0516 2.94865 13.5003 3.99998 13.5003H10.6667C11.718 13.5003 12.1667 13.0516 12.1667 12.0003V10.0003C12.1667 9.86766 12.2193 9.74048 12.3131 9.64672C12.4069 9.55295 12.534 9.50027 12.6667 9.50027C12.7993 9.50027 12.9264 9.55295 13.0202 9.64672C13.114 9.74048 13.1667 9.86766 13.1667 10.0003ZM14.5 4.0376C14.4999 4.23027 14.4616 4.42101 14.3872 4.59874C14.3128 4.77648 14.2038 4.93766 14.0667 5.07294L8.09132 11.0209C7.99745 11.1144 7.87042 11.1669 7.73798 11.1669H5.33332C5.20071 11.1669 5.07353 11.1143 4.97976 11.0205C4.886 10.9267 4.83332 10.7995 4.83332 10.6669V8.2596C4.83319 8.19409 4.84603 8.12921 4.87109 8.06868C4.89614 8.00816 4.93293 7.95319 4.97932 7.90693L10.928 1.9336C11.0632 1.79684 11.2242 1.68833 11.4017 1.61439C11.5792 1.54046 11.7697 1.50257 11.962 1.50294C12.1542 1.5024 12.3447 1.54002 12.5223 1.6136C12.6999 1.68718 12.8611 1.79527 12.9967 1.9316L14.0713 3.00027C14.208 3.1361 14.3163 3.29777 14.3899 3.47586C14.4635 3.65395 14.5009 3.84491 14.5 4.0376ZM11.7447 5.9756L10.0247 4.2556L5.83332 8.46694V10.1669H7.53332L11.7447 5.9756ZM13.5 4.03627C13.5004 3.97551 13.4889 3.91527 13.466 3.85899C13.4431 3.80271 13.4093 3.75149 13.3666 3.70827L12.2933 2.6356C12.2503 2.5928 12.1992 2.55898 12.143 2.53609C12.0868 2.5132 12.0267 2.5017 11.966 2.50227C11.9053 2.50189 11.8452 2.51347 11.789 2.53634C11.7329 2.55922 11.6818 2.59295 11.6387 2.6356L10.7333 3.54694L12.4533 5.27027L13.3633 4.36427C13.4066 4.32132 13.441 4.27023 13.4644 4.21393C13.4879 4.15764 13.5 4.09726 13.5 4.03627Z" fill="#54BD95"/>
</svg>
