<svg width="16" height="16" viewBox="0 0 16 16" fill="none" xmlns="http://www.w3.org/2000/svg">
<g clip-path="url(#clip0_54_27916)">
<path d="M2.66504 14.657V2.66453C2.66504 2.5611 2.68912 2.45909 2.73538 2.36658C2.78163 2.27406 2.84879 2.19359 2.93154 2.13153C3.62349 1.61257 4.4651 1.33203 5.33004 1.33203C7.32879 1.33203 8.66129 2.66453 10.2157 2.66453C11.104 2.66453 11.7851 2.48686 12.259 2.13153C12.358 2.05729 12.4757 2.01209 12.599 2.00097C12.7222 1.98986 12.8461 2.01328 12.9567 2.06862C13.0674 2.12395 13.1605 2.20901 13.2255 2.31426C13.2906 2.41951 13.325 2.5408 13.325 2.66453V9.32703C13.325 9.43046 13.301 9.53247 13.2547 9.62499C13.2084 9.7175 13.1413 9.79797 13.0585 9.86003C12.3666 10.379 11.525 10.6595 10.66 10.6595C8.66129 10.6595 7.32879 9.32703 5.33004 9.32703C4.34673 9.32706 3.39793 9.6895 2.66504 10.3451" stroke="white" stroke-width="0.998998" stroke-linecap="round" stroke-linejoin="round"/>
</g>
<defs>
<clipPath id="clip0_54_27916">
<rect width="15.99" height="15.99" fill="white"/>
</clipPath>
</defs>
</svg>
