<svg width="32" height="32" viewBox="0 0 32 32" fill="none" xmlns="http://www.w3.org/2000/svg">
<path d="M13.3334 29.0003C13.0681 29.0003 12.8138 28.8949 12.6262 28.7074C12.4387 28.5198 12.3334 28.2655 12.3334 28.0003V18.3336H6.66669C6.47401 18.3328 6.28566 18.2764 6.12425 18.1711C5.96283 18.0659 5.83519 17.9164 5.75665 17.7404C5.6781 17.5645 5.65199 17.3696 5.68145 17.1792C5.7109 16.9888 5.79466 16.8109 5.92269 16.6669L17.9227 3.3336C18.0581 3.18385 18.2356 3.07854 18.432 3.03148C18.6283 2.98443 18.8343 2.99782 19.0229 3.06991C19.2115 3.14201 19.3739 3.26943 19.4888 3.43546C19.6037 3.60149 19.6657 3.79837 19.6667 4.00027V13.6669H25.3334C25.5265 13.6673 25.7155 13.7236 25.8774 13.8289C26.0394 13.9342 26.1674 14.0842 26.246 14.2606C26.3247 14.4371 26.3506 14.6325 26.3207 14.8234C26.2907 15.0142 26.2062 15.1923 26.0774 15.3363L14.0774 28.6696C13.9834 28.7737 13.8686 28.8569 13.7404 28.9138C13.6123 28.9708 13.4736 29.0002 13.3334 29.0003ZM8.91202 16.3336H13.3334C13.5986 16.3336 13.8529 16.439 14.0405 16.6265C14.228 16.814 14.3334 17.0684 14.3334 17.3336V25.3949L23.088 15.6616H18.6667C18.4015 15.6616 18.1471 15.5562 17.9596 15.3687C17.772 15.1812 17.6667 14.9268 17.6667 14.6616V6.6056L8.91202 16.3336Z" fill="#25314C"/>
</svg>
