<svg width="25" height="25" viewBox="0 0 25 25" fill="none" xmlns="http://www.w3.org/2000/svg">
<path d="M21.8506 13.0012C21.753 14.8089 21.1339 16.5497 20.068 18.0131C19.0022 19.4765 17.5353 20.5999 15.8447 21.2474C14.154 21.8949 12.312 22.0388 10.5413 21.6618C8.77063 21.2848 7.14704 20.4029 5.86683 19.1228C4.58662 17.8428 3.7046 16.2193 3.32739 14.4486C2.95017 12.678 3.09392 10.8359 3.74124 9.14523C4.38857 7.45452 5.51176 5.98751 6.97505 4.92153C8.43834 3.85554 10.1791 3.23623 11.9868 3.13845C12.4085 3.11554 12.6293 3.61743 12.4054 3.97458C11.6566 5.17259 11.336 6.58902 11.4959 7.99271C11.6557 9.3964 12.2866 10.7045 13.2856 11.7034C14.2846 12.7024 15.5926 13.3333 16.9963 13.4932C18.4 13.653 19.8164 13.3324 21.0145 12.5836C21.3726 12.3598 21.8735 12.5795 21.8506 13.0012Z" stroke="#0A0A0A" stroke-width="1.33235" stroke-linecap="round" stroke-linejoin="round"/>
</svg>
