<svg width="32" height="32" viewBox="0 0 32 32" fill="none" xmlns="http://www.w3.org/2000/svg">
<path d="M21.3733 12.1813C21.4663 12.2742 21.54 12.3845 21.5903 12.5058C21.6406 12.6272 21.6665 12.7573 21.6665 12.8887C21.6665 13.02 21.6406 13.1501 21.5903 13.2715C21.54 13.3929 21.4663 13.5031 21.3733 13.596L15.152 19.8187C14.9641 20.0057 14.7098 20.1107 14.4447 20.1107C14.1796 20.1107 13.9252 20.0057 13.7373 19.8187L10.6267 16.7067C10.45 16.5171 10.3539 16.2664 10.3584 16.0073C10.363 15.7482 10.468 15.5011 10.6512 15.3178C10.8344 15.1346 11.0816 15.0297 11.3406 15.0251C11.5997 15.0205 11.8504 15.1167 12.04 15.2933L14.44 17.6933L19.96 12.1813C20.1477 11.9944 20.4018 11.8894 20.6667 11.8894C20.9316 11.8894 21.1857 11.9944 21.3733 12.1813ZM29 8.5V23.5C29 27.0467 27.0467 29 23.5 29H8.5C4.95333 29 3 27.0467 3 23.5V8.5C3 4.95333 4.95333 3 8.5 3H23.5C27.0467 3 29 4.95333 29 8.5ZM27 8.5C27 6.04667 25.9533 5 23.5 5H8.5C6.04667 5 5 6.04667 5 8.5V23.5C5 25.9533 6.04667 27 8.5 27H23.5C25.9533 27 27 25.9533 27 23.5V8.5Z" fill="#25314C"/>
</svg>
