<svg width="16" height="16" viewBox="0 0 16 16" fill="none" xmlns="http://www.w3.org/2000/svg">
<path d="M12.6667 10.5005C12.601 10.5006 12.536 10.4878 12.4753 10.4626C12.4147 10.4374 12.3596 10.4004 12.3134 10.3538L8.00002 6.04115L3.68669 10.3538C3.5919 10.4421 3.46654 10.4902 3.337 10.4879C3.20747 10.4857 3.08388 10.4332 2.99227 10.3416C2.90066 10.25 2.84819 10.1264 2.8459 9.99684C2.84362 9.8673 2.8917 9.74194 2.98002 9.64715L7.64669 4.98049C7.69306 4.93404 7.74814 4.8972 7.80877 4.87206C7.8694 4.84692 7.93439 4.83398 8.00002 4.83398C8.06565 4.83398 8.13064 4.84692 8.19127 4.87206C8.2519 4.8972 8.30698 4.93404 8.35335 4.98049L13.02 9.64715C13.0899 9.71708 13.1374 9.80613 13.1567 9.90306C13.1759 10 13.166 10.1005 13.1282 10.1918C13.0904 10.2831 13.0264 10.3611 12.9442 10.4161C12.8621 10.471 12.7655 10.5004 12.6667 10.5005Z" fill="#25314C"/>
</svg>
